<svg xmlns="http://www.w3.org/2000/svg" width="53.306" height="40.504" viewBox="0 0 53.306 40.504">
  <path id="bxs-quote-alt-right" d="M53.023,33.77l-.064.43-.066-.015A11.784,11.784,0,1,1,43.3,20.436a9.162,9.162,0,0,0-.65-1.739,10.774,10.774,0,0,0-1.2-2.158,12.742,12.742,0,0,0-1.537-1.885,17.385,17.385,0,0,0-1.77-1.545,10.868,10.868,0,0,0-1.826-1.184,9.706,9.706,0,0,0-1.662-.9l-1.378-.568-1.212-.5L33.308,5l1.527.368c.488.123,1.084.266,1.762.437a13.873,13.873,0,0,1,2.256.8A16,16,0,0,1,41.481,7.8a24.018,24.018,0,0,1,2.79,1.77,20.037,20.037,0,0,1,2.685,2.414,17.928,17.928,0,0,1,2.325,2.972,20.772,20.772,0,0,1,1.8,3.322,28.328,28.328,0,0,1,1.2,3.417,30.872,30.872,0,0,1,.982,6.232,31.856,31.856,0,0,1-.072,4.468q-.054.692-.161,1.378Zm-28.131,0-.064.43-.066-.015A11.508,11.508,0,1,1,13.511,20.27a11.44,11.44,0,0,1,1.662.166,9.162,9.162,0,0,0-.65-1.739,10.774,10.774,0,0,0-1.2-2.158,12.742,12.742,0,0,0-1.537-1.885,17.386,17.386,0,0,0-1.77-1.545,10.868,10.868,0,0,0-1.826-1.184,9.706,9.706,0,0,0-1.662-.9l-1.378-.568c-.77-.315-1.21-.5-1.21-.5L5.179,5l1.527.368c.488.123,1.084.266,1.762.437a13.873,13.873,0,0,1,2.256.8A16,16,0,0,1,13.352,7.8a24.016,24.016,0,0,1,2.79,1.77,20.037,20.037,0,0,1,2.685,2.414,17.928,17.928,0,0,1,2.325,2.972,20.772,20.772,0,0,1,1.8,3.322,28.33,28.33,0,0,1,1.2,3.417,30.871,30.871,0,0,1,.982,6.232,31.856,31.856,0,0,1-.072,4.468q-.057.689-.164,1.373Z" transform="translate(-0.995 -3.795)" fill="none" stroke="#00a651" stroke-width="2"/>
</svg>
